# This file uses centimeters as units for non-parametric coordinates.

mtllib P_BAG OBJ.mtl
g default
v -1.140698 0.011447 -1.133581
v 1.186838 0.044920 1.193954
v -1.067627 1.123876 -0.319075
v 0.402212 1.241034 1.160374
v -1.069005 3.880847 -0.326049
v 0.399451 3.814369 1.155929
v -1.135707 4.881078 -1.128590
v 1.171881 4.881078 1.178998
v -0.326049 3.880847 -1.069005
v 1.155929 3.814369 0.399451
v -0.319075 1.123876 -1.067627
v 1.160374 1.241035 0.402212
v 0.507921 4.354152 1.217692
v -1.158565 4.355235 -0.450055
v -0.450055 4.355235 -1.158565
v 1.217692 4.354152 0.507921
v 0.356981 3.066213 1.220100
v -1.136722 3.079301 -0.280410
v -0.280410 3.079301 -1.136722
v 1.220101 3.066213 0.356981
v 0.380261 1.696458 1.205359
v -1.122490 1.609853 -0.303993
v -0.303993 1.609854 -1.122490
v 1.205359 1.696459 0.380261
v 0.507243 0.699922 1.217393
v -1.141000 0.541376 -0.433544
v -0.433544 0.541376 -1.141000
v 1.217393 0.699922 0.507243
v -1.054691 4.355235 -1.033301
v -0.948045 3.880847 -0.925612
v -0.964430 3.079301 -0.938575
v -0.970075 1.609853 -0.945360
v -0.942579 1.123876 -0.919977
v -1.066804 0.541376 -1.045444
v 1.059135 0.699922 1.080574
v 1.017468 1.241035 1.040361
v 1.031768 1.696458 1.056681
v 1.025519 3.066213 1.051579
v 1.012705 3.814369 1.035547
v 1.093100 4.354152 1.114528
v 0.043655 0.076591 0.050771
v 0.406367 0.622051 -0.302143
v 0.433698 1.183492 -0.319673
v 0.464038 1.653922 -0.357830
v 0.483144 3.072642 -0.376689
v 0.427954 3.847020 -0.321697
v 0.398595 4.354684 -0.310611
v 0.038496 4.897013 0.045612
v -0.310611 4.354684 0.398595
v -0.321697 3.847020 0.427954
v -0.376689 3.072641 0.483144
v -0.357830 1.653922 0.464038
v -0.319673 1.183492 0.433698
v -0.302143 0.622051 0.406367
v -0.262239 2.478990 -1.160095
v 0.502086 2.500550 -0.395769
v 1.239843 2.521360 0.341988
v 1.028152 2.521360 1.055261
v 0.341988 2.521360 1.239843
v -0.395769 2.500550 0.502086
v -1.160095 2.478990 -0.262239
v -0.968515 2.478990 -0.941405
vt 0.004738 0.220357
vt 0.466699 0.216757
vt 0.093287 0.443820
vt 0.366999 0.457981
vt 0.093054 0.799065
vt 0.366435 0.789917
vt 0.981153 0.973675
vt 0.454556 0.973675
vt 0.889325 0.780725
vt 0.569198 0.778825
vt 0.877594 0.365526
vt 0.557804 0.390883
vt 0.981153 0.172798
vt 0.454556 0.175508
vt 0.376889 0.858992
vt 0.079527 0.860293
vt 0.906852 0.851872
vt 0.559407 0.859872
vt 0.366796 0.693034
vt 0.092612 0.695252
vt 0.886407 0.659365
vt 0.565736 0.665600
vt 0.368040 0.517147
vt 0.091051 0.506734
vt 0.882169 0.438991
vt 0.558564 0.460081
vt 0.377429 0.388039
vt 0.081717 0.369242
vt 0.888483 0.278011
vt 0.543538 0.309451
vt 0.981153 0.864431
vt 0.981153 0.784673
vt 0.981153 0.660762
vt 0.004738 0.502518
vt 0.981153 0.356140
vt 0.981153 0.259006
vt 0.454556 0.301066
vt 0.454556 0.387338
vt 0.454556 0.458063
vt 0.466699 0.696735
vt 0.454556 0.789108
vt 0.454556 0.877723
vt 0.232145 0.217935
vt 0.709740 0.176467
vt 0.713429 0.292236
vt 0.714629 0.377353
vt 0.717201 0.448639
vt 0.723177 0.663298
vt 0.726440 0.780682
vt 0.730311 0.857718
vt 0.733227 0.973675
vt 0.230878 0.959221
vt 0.230670 0.861080
vt 0.232171 0.795159
vt 0.232193 0.694750
vt 0.232223 0.511134
vt 0.232742 0.450142
vt 0.231762 0.377372
vt 0.883117 0.569374
vt 0.720780 0.576793
vt 0.564139 0.584194
vt 0.466699 0.623375
vt 0.366269 0.623390
vt 0.232198 0.620755
vt 0.093257 0.618236
vt 0.981153 0.566366
vt 0.004738 0.618298
vt 0.981153 0.430936
vt 0.454556 0.587334
vt 0.454556 0.673141
vt 0.466699 0.959221
vt 0.466699 0.871644
vt 0.466699 0.796010
vt 0.466699 0.513097
vt 0.466699 0.452818
vt 0.466699 0.379184
vt 0.004738 0.355711
vt 0.004738 0.438440
vt 0.004738 0.698841
vt 0.004738 0.804472
vt 0.004738 0.872654
vt 0.004738 0.959221
vn -0.617347 -0.459350 0.638656
vn 0.023918 -0.999425 0.024013
vn 0.122914 -0.985503 0.116947
vn -0.497244 -0.409842 0.764708
vn -0.704053 -0.077240 0.705934
vn -0.703703 -0.076845 0.706326
vn -0.443127 -0.049268 0.895104
vn -0.384404 -0.066061 0.920798
vn -0.618829 0.484818 0.618063
vn -0.705775 0.082216 0.703649
vn -0.428450 0.048322 0.902272
vn -0.490386 0.446646 0.748351
vn 0.703649 0.082216 -0.705775
vn 0.615239 0.491961 -0.615999
vn 0.752597 0.450470 -0.480285
vn 0.910787 0.046043 -0.410301
vn 0.706326 -0.076845 -0.703703
vn 0.705934 -0.077240 -0.704053
vn 0.928943 -0.065172 -0.364442
vn 0.903532 -0.047257 -0.425906
vn 0.636249 -0.466314 -0.614605
vn 0.769211 -0.413568 -0.487110
vn 0.693973 0.184314 0.696010
vn 0.706441 0.038988 0.706698
vn 0.706774 -0.034381 0.706604
vn 0.706218 -0.047635 0.706391
vn 0.693148 -0.190766 0.695093
vn -0.071164 -0.994343 -0.078857
vn -0.732784 -0.446038 0.513885
vn -0.688904 0.230570 -0.687204
vn -0.704765 0.089639 -0.703755
vn -0.890654 -0.032444 0.453524
vn -0.921694 -0.070220 0.381510
vn -0.706341 -0.042439 -0.706599
vn -0.705034 -0.078358 -0.704831
vn -0.898119 0.040832 0.437853
vn -0.735842 0.458534 0.498280
vn -0.682621 -0.266214 -0.680558
vn 0.000024 1.000000 -0.000007
vn 0.112244 0.988045 0.105686
vn -0.102142 0.988801 -0.108810
vn -0.706035 0.077436 0.703930
vn -0.389724 0.068726 0.918364
vn -0.706804 0.038237 -0.706376
vn -0.919433 0.069078 0.387131
vn 0.703930 0.077436 -0.706035
vn 0.926535 0.067969 -0.370018
vn 0.706325 0.039284 0.706797
vn -0.384562 -0.013445 0.923001
vn -0.707047 -0.018941 0.706913
vn -0.922774 -0.013753 0.385096
vn -0.707496 0.000076 -0.706717
vn 0.706913 -0.018941 -0.707047
vn 0.931096 -0.013071 -0.364540
vn 0.706728 -0.000566 0.707485
vn 0.489015 0.462398 -0.739630
vn 0.420258 0.038219 -0.906599
vn 0.367388 0.068298 -0.927557
vn 0.361334 -0.069474 -0.929844
vn 0.365111 -0.013388 -0.930868
vn 0.436675 -0.029809 -0.899125
vn 0.504324 -0.449782 -0.737125
s 1
g pCube1
usemtl phong1SG
f 54/58/1 41/43/2 2/2/3 25/27/4
f 52/56/5 53/57/6 4/4/7 21/23/8
f 49/53/9 50/54/10 6/6/11 13/15/12
f 46/49/13 47/50/14 16/18/15 10/10/16
f 43/46/17 44/47/18 24/26/19 12/12/20
f 41/44/2 42/45/21 28/30/22 2/14/3
f 2/2/3 35/76/23 25/27/4
f 4/4/7 36/75/24 37/74/25 21/23/8
f 6/6/11 39/73/26 40/72/27 13/15/12
f 1/1/28 26/28/29 34/77/30
f 33/78/31 3/3/32 22/24/33 32/34/34
f 30/80/35 5/5/36 14/16/37 29/81/38
f 48/52/39 49/53/9 13/15/12 8/71/40
f 29/81/38 14/16/37 7/82/41
f 47/50/14 48/51/39 8/8/40 16/18/15
f 13/15/12 40/72/27 8/71/40
f 50/54/10 51/55/42 17/19/43 6/6/11
f 31/79/44 18/20/45 5/5/36 30/80/35
f 45/48/46 46/49/13 10/10/16 20/22/47
f 17/19/43 38/40/48 39/73/26 6/6/11
f 59/63/49 60/64/50 52/56/5 21/23/8
f 32/34/34 22/24/33 61/65/51 62/67/52
f 44/47/18 56/60/53 57/61/54 24/26/19
f 21/23/8 37/74/25 58/62/55 59/63/49
f 53/57/6 54/58/1 25/27/4 4/4/7
f 34/77/30 26/28/29 3/3/32 33/78/31
f 42/45/21 43/46/17 12/12/20 28/30/22
f 25/27/4 35/76/23 36/75/24 4/4/7
f 15/17/56 29/31/38 7/7/41
f 9/9/57 30/32/35 29/31/38 15/17/56
f 19/21/58 31/33/44 30/32/35 9/9/57
f 23/25/59 32/68/34 62/66/52 55/59/60
f 11/11/61 33/35/31 32/68/34 23/25/59
f 27/29/62 34/36/30 33/35/31 11/11/61
f 1/13/28 34/36/30 27/29/62
f 35/37/23 2/14/3 28/30/22
f 36/38/24 35/37/23 28/30/22 12/12/20
f 37/39/25 36/38/24 12/12/20 24/26/19
f 57/61/54 58/69/55 37/39/25 24/26/19
f 39/41/26 38/70/48 20/22/47 10/10/16
f 40/42/27 39/41/26 10/10/16 16/18/15
f 8/8/40 40/42/27 16/18/15
f 27/29/62 42/45/21 41/44/2 1/13/28
f 11/11/61 43/46/17 42/45/21 27/29/62
f 23/25/59 44/47/18 43/46/17 11/11/61
f 55/59/60 56/60/53 44/47/18 23/25/59
f 9/9/57 46/49/13 45/48/46 19/21/58
f 15/17/56 47/50/14 46/49/13 9/9/57
f 7/7/41 48/51/39 47/50/14 15/17/56
f 14/16/37 49/53/9 48/52/39 7/82/41
f 5/5/36 50/54/10 49/53/9 14/16/37
f 18/20/45 51/55/42 50/54/10 5/5/36
f 22/24/33 52/56/5 60/64/50 61/65/51
f 3/3/32 53/57/6 52/56/5 22/24/33
f 26/28/29 54/58/1 53/57/6 3/3/32
f 1/1/28 41/43/2 54/58/1 26/28/29
f 19/21/58 45/48/46 56/60/53 55/59/60
f 57/61/54 56/60/53 45/48/46 20/22/47
f 38/70/48 58/69/55 57/61/54 20/22/47
f 59/63/49 58/62/55 38/40/48 17/19/43
f 51/55/42 60/64/50 59/63/49 17/19/43
f 61/65/51 60/64/50 51/55/42 18/20/45
f 62/67/52 61/65/51 18/20/45 31/79/44
f 55/59/60 62/66/52 31/33/44 19/21/58
